<?xml version="1.0" encoding="utf-8"?>
<!-- Generator: Adobe Illustrator 22.1.0, SVG Export Plug-In . SVG Version: 6.00 Build 0)  -->
<svg version="1.1" id="Layer_1" xmlns="http://www.w3.org/2000/svg" xmlns:xlink="http://www.w3.org/1999/xlink" x="0px" y="0px"
	 viewBox="0 0 77 77" style="enable-background:new 0 0 77 77;" xml:space="preserve">
<style type="text/css">
	.st0{fill:#3366CC;}
	.st1{fill:#3366CC;stroke:#F9F9F9;stroke-miterlimit:10;}
	.st2{fill:#3366CC;stroke:#FFFFFF;stroke-miterlimit:10;}
	.st3{fill:#3366CC;stroke:#FFFFFF;stroke-width:2;stroke-miterlimit:10;}
</style>
<g>
	<circle class="st0" cx="28.4" cy="18.9" r="5.9"/>
</g>
<g>
	<circle class="st0" cx="10.7" cy="52.5" r="5.1"/>
</g>
<path class="st0" d="M51.5,56.2L51.5,56.2c-2.6,1.5-5.9,0.7-7.4-1.9L31,32.3c-1.5-2.6-0.7-5.9,1.9-7.4l0,0c2.6-1.5,5.9-0.7,7.4,1.9
	l13.1,22C54.9,51.4,54.1,54.7,51.5,56.2z"/>
<path class="st0" d="M47.4,58.6H22.7c-3,0-5.4-2.4-5.4-5.4l0,0c0-3,2.4-5.4,5.4-5.4h24.6c3,0,5.4,2.4,5.4,5.4l0,0
	C52.7,56.2,50.3,58.6,47.4,58.6z"/>
<path class="st1" d="M23.1,56L8.3,61.3c-1.5,0.5-3-0.2-3.6-1.7l0,0c-0.5-1.5,0.2-3,1.7-3.6l14.8-5.3c1.5-0.5,3,0.2,3.6,1.7l0,0
	C25.3,53.8,24.5,55.4,23.1,56z"/>
<path class="st1" d="M37.7,29.5l-1.6,12.2c-0.2,1.2-1.2,2-2.4,1.8l-0.6-0.1c-1.2-0.2-2-1.2-1.8-2.4l1.6-12.2c0.2-1.2,1.2-2,2.4-1.8
	l0.6,0.1C37.1,27.3,37.9,28.4,37.7,29.5z"/>
<path class="st2" d="M34.8,43.6l-9.5,5.2c-0.9,0.6-2.2,0.2-2.7-0.7l0-0.1c-0.6-0.9-0.2-2.2,0.7-2.7l9.6-5.3c0.9-0.6,2.2-0.2,2.7,0.7
	l0,0.1C36.2,41.8,35.8,43.1,34.8,43.6z"/>
<path class="st3" d="M68,60.4H44.1c-2.5,0-4.6-2.1-4.6-4.6v-8.2H73v7.8C73,58.2,70.8,60.4,68,60.4z"/>
</svg>
