<?xml version="1.0" encoding="utf-8"?>
<!-- Generator: Adobe Illustrator 22.1.0, SVG Export Plug-In . SVG Version: 6.00 Build 0)  -->
<svg version="1.1" id="Layer_1" xmlns="http://www.w3.org/2000/svg" xmlns:xlink="http://www.w3.org/1999/xlink" x="0px" y="0px"
	 viewBox="0 0 77 77" style="enable-background:new 0 0 77 77;" xml:space="preserve">
<style type="text/css">
	.st0{stroke:#F9F9F9;stroke-width:0.5;stroke-miterlimit:10;}
	.st1{fill:#1A1A1A;stroke:#FFFFFF;stroke-width:0.75;stroke-miterlimit:10;}
</style>
<g>
	<circle cx="28.4" cy="18.9" r="5.9"/>
</g>
<g>
	<circle cx="10.7" cy="52.5" r="5.1"/>
</g>
<path d="M51.5,56.2L51.5,56.2c-2.6,1.5-5.9,0.7-7.4-1.9L31,32.3c-1.5-2.6-0.7-5.9,1.9-7.4l0,0c2.6-1.5,5.9-0.7,7.4,1.9l13.1,22
	C54.9,51.4,54.1,54.7,51.5,56.2z"/>
<path d="M47.4,58.6H22.7c-3,0-5.4-2.4-5.4-5.4v0c0-3,2.4-5.4,5.4-5.4h24.6c3,0,5.4,2.4,5.4,5.4v0C52.7,56.2,50.3,58.6,47.4,58.6z"/>
<path class="st0" d="M23.1,56L8.3,61.3c-1.5,0.5-3-0.2-3.6-1.7l0,0c-0.5-1.5,0.2-3,1.7-3.6l14.8-5.3c1.5-0.5,3,0.2,3.6,1.7l0,0
	C25.3,53.8,24.5,55.4,23.1,56z"/>
<path class="st0" d="M37.7,29.5l-1.6,12.2c-0.2,1.2-1.2,2-2.4,1.8l-0.6-0.1c-1.2-0.2-2-1.2-1.8-2.4l1.6-12.2c0.2-1.2,1.2-2,2.4-1.8
	l0.6,0.1C37.1,27.3,37.9,28.4,37.7,29.5z"/>
<path d="M35.3,42.7l-6.4,8.8c-0.6,0.9-1.9,1.1-2.8,0.5L26,51.9c-0.9-0.6-1.1-1.9-0.5-2.8l6.4-8.9c0.6-0.9,1.9-1.1,2.8-0.5l0.1,0.1
	C35.8,40.4,36,41.8,35.3,42.7z"/>
<path class="st1" d="M68,60.4H44.1c-2.5,0-4.6-2.1-4.6-4.6v-8.2H73v7.8C73,58.2,70.8,60.4,68,60.4z"/>
</svg>
